<?xml version="1.0" encoding="UTF-8" standalone="no"?>
<!DOCTYPE svg PUBLIC "-//W3C//DTD SVG 1.1//EN" "http://www.w3.org/Graphics/SVG/1.1/DTD/svg11.dtd">
<svg xmlns:svg="http://www.w3.org/2000/svg" xmlns:xlink="http://www.w3.org/1999/xlink" xmlns="http://www.w3.org/2000/svg" version="1.1" viewBox="0 0 256px 256px">
<title>Brain</title>
<desc>Generated with ExportPhantom.m on 02-May-2011 17:44:31</desc>
<desc>Recommanded viewers: recent verion of Opera or Firefox</desc>
<desc>Contact: Matthieu Guerquin-Kern, Biomedical Imaging Group / EPF Lausanne</desc>
<defs>
	<path    id="Raaa" d="M.09069,-.445306 Q.060151,-.453243 .023179,-.453511 T-.044994,-.452042 -.110305,-.435617 -.171468,-.403136 -.221403,-.359308 -.258984,-.301032 -.280330,-.23793 -.298421,-.174547 -.317193,-.109270 -.329314,-.040881 -.336783,.024057 -.334635,.091175 -.326712,.158934 -.312634,.228103 -.283974,.286930 -.253024,.336139 -.210584,.387135 -.151334,.423853 -.088891,.448276 -.020756,.460518 .046575,.460862 .112587,.447236 .175502,.421114 .229136,.381009 .272163,.327537 .302739,.266410 .322409,.202053 .334875,.133931 .341249,.065782 .340075,-.001755 .334120,-.069454 .32069,-.135989 .302374,-.202325 .28203,-.267990 .251552,-.328316 .207600,-.379538 .151909,-.420791 .09069,-.445306 "/>
	<path    id="Raab" d="M.244402,-.310165 Q.236735,-.324275 .218396,-.342760 T.185982,-.373858 .150536,-.396729 .109213,-.413454 .067797,-.425007 .025052,-.433631 -.017358,-.434300 -.059962,-.427797 -.102311,-.417393 -.141809,-.400027 -.178113,-.376357 -.210424,-.347259 -.23562,-.312964 -.251226,-.271148 -.26154,-.241207 -.269682,-.220591 -.274461,-.190070 -.278857,-.176500 -.284486,-.169008 -.293447,-.139269 -.302744,-.096469 -.310434,-.055928 -.314643,-.018161 -.317898,.012047 -.31776,.042559 -.314598,.085743 -.311665,.129554 -.304137,.172219 -.292707,.213802 -.275014,.253504 -.252891,.290837 -.228015,.327125 -.208198,.353756 -.182527,.375404 -.144155,.398276 -.104621,.416061 -.063492,.426982 -.019521,.432423 .022576,.435357 .06209,.431226 .101884,.42402 .143394,.410065 .181343,.388612 .213807,.361461 .242493,.328113 .264611,.291322 .283294,.251803 .299061,.212014 .310875,.170078 .317799,.127128 .322255,.083641 .323832,.040615 .322651,-.002717 .319131,-.045732 .31151,-.088640 .298902,-.129630 .290744,-.163353 .279858,-.194926 .272603,-.216972 .271859,-.234921 .260008,-.271766 .244402,-.310165 "/>
	<path    id="Raac" d="M.053259,-.423368 Q.031995,-.429313 .010135,-.428510 T-.033337,-.424994 -.076254,-.415758 -.117150,-.403101 -.150818,-.38214 -.152304,-.370679 -.126317,-.379713 -.095315,-.393063 -.059368,-.40376 -.017203,-.401062 .022900,-.403118 .050297,-.405960 .040177,-.396170 .011066,-.383643 -.003024,-.384965 -.027950,-.396524 -.069923,-.393593 -.112403,-.379644 -.154512,-.3659 -.185385,-.349182 -.206618,-.318372 -.22483,-.278764 -.239889,-.241612 -.25093,-.2054 -.255866,-.165142 -.274048,-.125045 -.288026,-.086683 -.291740,-.046532 -.297559,-.004303 -.299780,.037287 -.297465,.084257 -.299608,.103967 -.305296,.103778 -.301451,.120032 -.292905,.147154 -.289318,.17668 -.284542,.192498 -.280495,.202562 -.273957,.224303 -.260911,.251175 -.235293,.285132 -.225877,.305290 -.226556,.315274 -.201769,.343915 -.160748,.375383 -.148573,.379525 -.183053,.349801 -.177960,.348870 -.132173,.380058 -.097120,.398472 -.066389,.405670 -.070754,.411787 -.069148,.416036 -.033642,.420907 .000610,.426506 .028102,.426571 .041891,.423610 .035813,.419452 .016153,.414306 .025611,.411077 .046439,.415516 .062398,.419156 .088883,.416695 .110476,.412564 .128242,.405329 .131610,.400585 .090806,.407634 .065781,.410223 .098538,.399457 .141544,.383438 .177536,.360176 .210146,.331019 .236328,.296139 .26656,.237817 .289908,.17751 .295655,.134500 .299322,.090272 .306285,.047625 .306657,.005252 .303343,-.037446 .297823,-.079598 .288728,-.113651 .274443,-.13946 .263416,-.179712 .258142,-.219301 .247403,-.260901 .239507,-.286054 .227359,-.302481 .200858,-.338028 .162024,-.361748 .124886,-.377609 .122799,-.381626 .150559,-.371328 .175756,-.359119 .172080,-.370205 .135634,-.395133 .094089,-.410709 .053259,-.423368 "/>
	<path    id="Raad" d="M.005750,.405074 Q.006125,.395951 -.000709,.385954 T-.014833,.384750 -.021926,.399561 -.018581,.408513 -.02485,.412628 -.025676,.416412 -.005854,.416607 .005750,.405074 "/>
	<path    id="Raae" d="M.161734,.378803 Q.154024,.38284 .147565,.390485 T.161721,.386973 .188476,.369181 .209591,.350484 .230539,.329043 .243969,.309527 .252590,.29303 .262415,.269295 .249324,.283346 .221453,.322790 .208482,.340035 .185538,.362014 .161734,.378803 "/>
	<path    id="Raaf" d="M.295303,.192143 Q.297163,.189131 .296425,.185851 T.293251,.188492 .286954,.199068 .284384,.209997 .289802,.212058 .293686,.2015 .295303,.192143 "/>
	<path    id="Raag" d="M.279470,-.152320 Q.281358,-.164129 .276092,-.169190 T.270357,-.164794 .273735,-.147923 .279470,-.152320 "/>
	<path    id="Raah" d="M.252095,-.251934 Q.252940,-.245267 .257312,-.241973 T.261336,-.246070 .256119,-.256031 .252095,-.251934 "/>
	<path    id="Raai" d="M-.282409,-.135719 Q-.277637,-.139077 -.276047,-.14703 T-.280995,-.149504 -.287358,-.138193 -.282409,-.135719 "/>
	<path    id="Raaj" d="M-.236104,-.26827 Q-.234425,-.271893 -.234691,-.279670 T-.238668,-.278344 -.244411,-.266238 -.245294,-.260317 -.240964,-.261024 -.236104,-.26827 "/>
	<path    id="Raba" d="M.302055,.12797 Q.302408,.133095 .304706,.129384 T.307003,.120017 .30824,.112241 .306473,.107292 .302585,.113654 .302055,.12797 "/>
	<path    id="Rabb" d="M.236782,-.344327 Q.209602,-.376933 .180207,-.400072 T.108101,-.434616 .027821,-.448001 -.047398,-.448001 -.122915,-.428027 -.189798,-.386092 -.243088,-.323728 -.275472,-.248984 -.296310,-.176902 -.315879,-.100988 -.329048,-.018953 -.332203,.056129 -.325149,.131696 -.311427,.211956 -.279950,.281981 -.243021,.342647 -.185125,.395895 -.112465,.432674 -.035677,.450199 .045461,.451531 .121463,.434055 .194638,.399138 .25037,.345041 .291382,.274678 .318594,.200101 .333810,.111651 .338522,.030271 .333753,-.040744 .320336,-.120260 .299672,-.197807 .275888,-.274452 .236782,-.344327 "/>
	<path    id="Rabc" d="M.254023,-.300192 Q.245319,-.317913 .228031,-.337751 T.195270,-.371303 .158075,-.397439 .115478,-.416533 .051380,-.431883 -.017181,-.436542 -.067098,-.429499 -.111661,-.41872 -.153603,-.39796 -.19067,-.371911 -.223353,-.338300 -.253434,-.284688 -.271415,-.230014 -.289951,-.167064 -.305971,-.104016 -.314757,-.058097 -.318694,-.013163 -.323787,.020309 -.325379,.037475 -.317899,.079670 -.310147,.148734 -.297881,.202939 -.281755,.24559 -.259040,.286766 -.233375,.324332 -.205751,.358073 -.152532,.396230 -.092302,.423216 -.047390,.432214 .005074,.436552 .051279,.434784 .090747,.428689 .134265,.416250 .175337,.394122 .209138,.369770 .236224,.340315 .261959,.301755 .281832,.261767 .297436,.223737 .310458,.181993 .321503,.112405 .327778,.042306 .327514,-.002395 .319550,-.062406 .311859,-.112092 .304717,-.140687 .292507,-.177710 .282722,-.214375 .270658,-.256856 .254023,-.300192 "/>
	<path    id="Rabd" d="M-.098934,-.404559 Q-.108697,-.398846 -.116074,-.399338 T-.133388,-.393804 -.147988,-.381880 -.145253,-.376177 -.131150,-.380630 -.116098,-.386253 -.098461,-.398946 -.098934,-.404559 "/>
	<path    id="Rabe" d="M-.013290,-.424245 Q-.057026,-.421921 -.053251,-.413406 T-.040035,-.409229 -.003767,-.409389 .034588,-.412218 .03828,-.422897 -.013290,-.424245 "/>
	<path    id="Rabf" d="M.083797,-.410419 Q.076121,-.410083 .057764,-.412749 T.045211,-.411501 .058476,-.408114 .078754,-.401424 .096962,-.398595 .096913,-.406869 .083797,-.410419 "/>
	<path    id="Rabg" d="M.141006,-.380710 Q.144136,-.375729 .152830,-.372998 T.157550,-.377898 .145726,-.385610 .141006,-.380710 "/>
	<path    id="Rabh" d="M.242968,-.255066 Q.239876,-.268421 .230842,-.288466 T.210779,-.323935 .179678,-.350446 .139932,-.369565 .102770,-.386435 .055066,-.394940 .014714,-.383040 -.003767,-.382236 -.030388,-.394597 -.071234,-.390912 -.111692,-.377919 -.151353,-.364240 -.183434,-.346476 -.206872,-.313753 -.224573,-.274237 -.238927,-.238824 -.249556,-.198244 -.254873,-.157515 -.272198,-.120863 -.285419,-.079625 -.289906,-.037903 -.295903,.003019 -.297653,.044400 -.295836,.087359 -.291996,.129637 -.285467,.170908 -.272983,.210865 -.256750,.245535 -.226964,.292263 -.180859,.341749 -.124127,.379281 -.065945,.401392 -.031118,.397969 -.013073,.377783 .002200,.386411 .028730,.409547 .080703,.401998 .138637,.379186 .187488,.346162 .221472,.312743 .244196,.276736 .267864,.228762 .285387,.181733 .291846,.139797 .299914,.075748 .304472,.018237 .301944,-.025054 .296976,-.070041 .286899,-.104133 .270500,-.139592 .259177,-.184192 .252420,-.226287 .242968,-.255066 "/>
	<path    id="Rabi" d="M.215935,-.247975 Q.231316,-.263292 .197652,-.252462 T.183066,-.269909 .194791,-.310237 .176011,-.305672 .138253,-.278358 .105848,-.313764 .088954,-.354476 .069994,-.361923 .053808,-.371711 .056015,-.345166 .046356,-.311367 .055160,-.278248 .053470,-.248042 .024292,-.222426 .016145,-.212143 -.015093,-.215123 -.023143,-.229923 -.033219,-.245674 -.048231,-.257290 -.052371,-.278754 -.056661,-.29947 -.034567,-.31249 -.02692,-.323508 -.022083,-.351333 -.025041,-.368525 -.043749,-.358367 -.063424,-.346499 -.084073,-.340497 -.098860,-.33683 -.099924,-.325454 -.103654,-.304585 -.125978,-.312131 -.153615,-.339984 -.161907,-.332174 -.169984,-.306832 -.19236,-.301835 -.188532,-.288142 -.192365,-.273266 -.193593,-.257335 -.189572,-.241836 -.205443,-.245690 -.214499,-.241393 -.226277,-.228154 -.235542,-.217945 -.204558,-.208774 -.205006,-.196019 -.238591,-.161636 -.207291,-.149425 -.172712,-.175935 -.161286,-.178667 -.135948,-.170151 -.121293,-.146780 -.134198,-.105774 -.140713,-.076624 -.146987,-.044098 -.151414,-.009533 -.150778,.023359 -.151907,.044399 -.137683,.061340 -.140709,.092391 -.159046,.107789 -.164766,.117820 -.200140,.132762 -.260653,.123925 -.276948,.123283 -.267608,.139671 -.248328,.149430 -.249219,.176541 -.235904,.179112 -.193277,.161438 -.183142,.182004 -.175723,.202166 -.178055,.21562 -.211366,.230050 -.238159,.242000 -.228166,.251913 -.207112,.268942 -.197871,.297219 -.186024,.281618 -.170375,.271014 -.169564,.301519 -.171500,.322727 -.152569,.345062 -.14284,.334405 -.137730,.311867 -.129776,.323407 -.118850,.358324 -.109200,.354215 -.108504,.303444 -.074124,.313084 -.046859,.366233 -.030785,.380866 -.015653,.364574 -.013635,.345146 -.015790,.330982 -.014662,.317538 -.012025,.296957 -.030449,.300093 -.057133,.297660 -.080247,.256633 -.075661,.241416 -.05734,.266235 -.039898,.278891 -.016363,.27011 -.006132,.242073 -.018413,.221449 -.038915,.215802 -.024408,.205519 -.011222,.178476 -.006949,.147788 .005320,.149269 .003830,.192649 .018985,.219447 .027729,.222981 .036359,.237553 .043324,.249878 .020485,.263424 .005769,.285963 .015308,.303637 .032101,.310706 .048895,.291986 .064806,.266898 .065568,.292639 .054672,.317699 .047673,.334505 .036191,.341453 .017958,.332387 .004156,.353568 .017555,.366591 .036335,.366752 .054561,.382975 .071950,.362891 .083010,.326055 .094215,.293439 .106505,.276934 .107237,.336226 .107249,.378167 .128612,.336233 .150362,.319945 .171635,.333501 .180628,.318634 .192398,.301373 .210873,.284606 .228260,.264951 .238449,.249765 .254693,.230710 .226088,.205127 .193696,.182473 .228871,.183598 .252629,.181167 .263476,.171523 .275589,.149248 .263948,.143506 .215856,.159251 .161106,.146076 .153952,.131937 .188829,.109283 .234436,.089706 .268617,.080252 .248148,.071415 .206514,.053259 .159217,.064185 .134985,.071261 .141741,.029326 .146697,-.003778 .144312,-.059022 .130799,-.127441 .131060,-.163859 .125233,-.176660 .133614,-.190884 .147581,-.18747 .169841,-.151609 .175200,-.126120 .159699,-.110535 .180132,-.105555 .197754,-.10413 .186080,-.098542 .177997,-.091933 .174345,-.079383 .180506,-.068779 .182247,-.052322 .188111,-.027280 .181378,-.002485 .170249,.009726 .195812,.021338 .228787,.028103 .248809,.036779 .262374,.05008 .289733,.032032 .286615,.012127 .252920,.001371 .262757,-.014535 .285597,-.049050 .270891,-.063028 .242511,-.046758 .224961,-.064768 .250374,-.089582 .229271,-.105955 .220031,-.124432 .231446,-.140952 .222006,-.150239 .242427,-.163530 .229964,-.172345 .20553,-.185722 .222067,-.202614 .222414,-.218359 .215935,-.247975 "/>
	<path    id="Rabj" d="M-.162671,-.119535 Q-.158485,-.128573 -.163935,-.13353 T-.181646,-.133059 -.199503,-.120811 -.225557,-.122236 -.253767,-.124053 -.228727,-.099310 -.214618,-.073604 -.251979,-.089188 -.276223,-.080673 -.265623,-.044428 -.243986,-.027039 -.247605,-.015464 -.272224,-.027872 -.282881,-.012710 -.279154,.023527 -.270632,.033780 -.265916,.024856 -.264295,.012 -.249184,.019170 -.244248,.038291 -.240575,.048956 -.227986,.058386 -.189730,.067062 -.175071,.056699 -.206669,.050111 -.225150,.028100 -.212432,.015407 -.197480,.010754 -.189167,-.000826 -.171998,.000367 -.179840,-.012505 -.201973,-.027072 -.203674,-.037851 -.190912,-.056022 -.171400,-.070920 -.170978,-.090142 -.175417,-.110195 -.162671,-.119535 "/>
	<path    id="Raca" d="M.083875,.129914 Q.099574,.123969 .085618,.100257 T.071995,.069548 .067867,.060324 .045818,.034316 .034150,-.000643 .036382,-.028356 .041392,-.036456 .049503,-.045613 .043302,-.070021 .045573,-.092422 .058266,-.107933 .066190,-.122411 .080946,-.132353 .086267,-.144465 .079923,-.180049 .045219,-.174813 .002791,-.148625 -.038445,-.170154 -.070484,-.181274 -.073259,-.164322 -.06912,-.141297 -.053626,-.122580 -.042420,-.102673 -.048183,-.059454 -.047587,-.045797 -.038969,-.048712 -.038182,-.029527 -.026678,-.018409 -.009777,-.041640 .005921,-.035043 .010095,.008659 .011935,.049580 .027436,.083802 .052873,.114008 .083875,.129914 "/>
	<path    id="Racb" d="M-.029887,.024487 Q-.040896,.030773 -.056224,.042603 T-.082200,.073529 -.096499,.106560 -.089717,.124190 -.057689,.106432 -.032217,.074806 -.025645,.05343 -.014011,.042765 -.005743,.054314 -.000819,.063990 .003278,.036786 -.000225,.002747 -.005481,.000498 -.013704,.001279 -.020858,.006742 -.016387,.015579 -.008139,.022166 -.014201,.032449 -.020365,.026289 -.029887,.024487 "/>
	<path    id="Racc" d="M-.123998,.196652 Q-.133338,.193760 -.135723,.200990 T-.131053,.205971 -.129463,.220913 -.124395,.229750 -.114260,.210469 -.123998,.196652 "/>
	<path    id="Racd" d="M.135848,.174703 Q.116066,.169338 .133852,.182834 T.170418,.192635 .179565,.181075 .162781,.176639 .135848,.174703 "/>
	<path    id="Race" d="M.161773,.102982 Q.181894,.086032 .157501,.092940 T.137379,.109891 .161773,.102982 "/>
	<path    id="Racf" d="M.088953,.034547 Q.079450,.034618 .086008,.042089 T.100106,.046083 .103050,.038542 .088953,.034547 "/>
	<path    id="Racg" d="M.229054,-.025478 Q.239526,-.029007 .253784,-.027802 T.256119,-.030774 .233222,-.033081 .220416,-.02658 .229054,-.025478 "/>
	<path    id="Rach" d="M.278505,.029085 Q.287121,.027227 .280265,.022969 T.265162,.021523 .263401,.027638 .278505,.029085 "/>
	<path    id="Raci" d="M.190181,.252215 Q.176926,.251508 .18806,.257871 T.204849,.261052 .206970,.255396 .190181,.252215 "/>
	<path    id="Racj" d="M-.035157,.259284 Q-.030561,.259991 -.031268,.255573 T-.037808,.246383 -.041696,.250094 -.035157,.259284 "/>
	<path    id="Rada" d="M-.20659,.249741 Q-.201995,.251508 -.195986,.246029 T-.196516,.241434 -.20712,.245146 -.20659,.249741 "/>
	<path    id="Radb" d="M-.130417,-.27587 Q-.129887,-.270568 -.125115,-.269861 T-.120343,-.273749 -.125645,-.279758 -.130417,-.27587 "/>
	<path    id="Radc" d="M.132389,.240021 Q.133449,.243732 .137337,.245146 T.140695,.243732 .135747,.238607 .132389,.240021 "/>
	<path    id="Radd" d="M-.104083,.18753 Q-.102669,.181521 -.104967,.181344 T-.109562,.182581 -.108679,.188767 -.104083,.18753 "/>
	<path    id="Rade" d="M.197248,.131894 Q.191835,.131483 .191871,.134331 T.197905,.136617 .206108,.138292 .216119,.128143 .213709,.120236 .203077,.128510 .197248,.131894 "/>
	<path    id="Radf" d="M-.209064,.198487 Q-.201995,.200608 -.197753,.197957 T-.198283,.192302 -.209594,.192832 -.209064,.198487 "/>
	<path    id="Radg" d="M.136983,-.328714 Q.139458,-.327477 .141579,-.329598 T.141755,-.334193 .13716,-.333309 .136983,-.328714 "/>
	<path    id="Radh" d="M-.200679,.097505 Q-.193354,.098323 -.201303,.092860 T-.215015,.094788 -.214391,.099433 -.200679,.097505 "/>
	<path    id="Radi" d="M.040321,-.167814 Q.001143,-.140892 -.000123,-.141018 T-.031990,-.162798 -.063584,-.175777 -.042420,-.146215 -.029503,-.093385 -.036259,-.038628 -.020162,-.032683 -.004661,-.063692 .005275,-.050357 .027532,-.023525 .028824,-.031558 .029222,-.041359 .034389,-.086958 .046809,-.143804 .073439,-.176099 .040321,-.167814 "/>
	<path    id="Radj" d="M-.035006,.06848 Q-.029069,.056345 -.041855,.047450 T-.075812,.070983 -.091253,.112904 -.068619,.108997 -.051190,.086356 -.045805,.078865 -.035006,.06848 "/>
	<path    id="Raea" d="M.062509,.112140 Q.076519,.132063 .082381,.119852 T.069861,.075990 .041587,.043517 .024893,.026807 .014615,.027789 .016684,.057782 .035365,.081561 .062509,.112140 "/>
	<path    id="Raeb" d="M.010270,.236399 Q.002448,.225374 .000257,.217208 T-.007656,.207905 -.011565,.213867 -.005766,.222144 -.002177,.246138 -.015691,.275058 -.040135,.284537 -.064379,.267507 -.068553,.268149 -.049748,.297983 -.038613,.298725 -.027755,.28606 -.009714,.288283 -.001121,.280915 .008653,.257063 .010270,.236399 "/>
	<path    id="Raec" d="M.221448,-.350086 Q.239398,-.329446 .240439,-.331653 T.224928,-.354454 .194063,-.38675 .160542,-.409865 .121061,-.427866 .079167,-.438707 .035547,-.444973 -.006704,-.446025 -.047471,-.445362 -.099264,-.434915 -.160354,-.405373 -.191952,-.378702 -.171781,-.389466 -.115344,-.419756 -.058400,-.433734 -.015407,-.439132 .04813,-.43495 .111726,-.420877 .152183,-.403675 .187776,-.382011 .221448,-.350086 "/>
	<path    id="Raed" d="M-.069939,.440464 Q-.042418,.445925 -.013316,.448624 T.041468,.448484 .096109,.438441 .149353,.420172 .198548,.392385 .249987,.339835 .297389,.252634 .322632,.175073 .332825,.092703 .334616,.004309 .329987,.027555 .321435,.135830 .293211,.240542 .256673,.316071 .223584,.359451 .164733,.404263 .061881,.436709 -.055488,.434446 -.154288,.398283 -.212923,.353875 -.251418,.301652 -.287990,.237429 -.310539,.159827 -.319866,.079003 -.327074,.038250 -.326879,.091892 -.315268,.179970 -.301221,.23355 -.277207,.279693 -.247735,.328603 -.197212,.382738 -.129103,.421161 -.069939,.440464 "/>
	<path    id="Raee" d="M.325683,-.041234 Q.329400,-.011092 .331487,-.015109 T.331785,-.039852 .324730,-.090945 .316098,-.114879 .317349,-.089912 .325683,-.041234 "/>
	<path    id="Raef" d="M.303069,-.153445 Q.315390,-.115045 .313999,-.133843 T.289456,-.226388 .254778,-.315398 .256874,-.298719 .280622,-.229310 .303069,-.153445 "/>
	<path    id="Raeg" d="M-.117667,.37797 Q-.127594,.376369 -.11348,.382955 T-.075947,.395686 -.052738,.396405 -.046888,.396249 -.028277,.392276 -.028531,.384358 -.047655,.381543 -.054577,.358018 -.068588,.327540 -.075779,.330675 -.071753,.360660 -.080622,.370347 -.092260,.336623 -.100829,.318190 -.103103,.342112 -.104753,.368191 -.117667,.37797 "/>
	<path    id="Raeh" d="M.285411,.006193 Q.300287,.001922 .300004,-.021586 T.29361,-.071777 .283322,-.109457 .268948,-.136211 .256665,-.184584 .245536,-.238408 .227798,-.246728 .229189,-.231946 .246828,-.211591 .229894,-.191601 .215189,-.183373 .236694,-.185063 .249512,-.172243 .256467,-.136574 .238383,-.119865 .223776,-.114723 .255813,-.114126 .278765,-.097839 .267603,-.079789 .241095,-.069528 .240788,-.055077 .263335,-.066214 .281477,-.075883 .291479,-.039793 .267681,-.009285 .257397,.000360 .285411,.006193 "/>
	<path    id="Raei" d="M.224075,-.273303 Q.225565,-.262538 .230807,-.265885 T.225839,-.291431 .205990,-.325360 .181348,-.346086 .148955,-.362795 .115569,-.375810 .111793,-.369383 .119281,-.345906 .124691,-.337756 .131483,-.345945 .136903,-.355540 .158693,-.350424 .165406,-.318804 .167938,-.302628 .174461,-.322275 .184946,-.333791 .205891,-.319415 .210164,-.295797 .214436,-.283907 .224075,-.273303 "/>
	<path    id="Raej" d="M-.001115,-.269992 Q.005493,-.264419 .011694,-.269102 T.011733,-.286639 .016106,-.317005 .021081,-.345611 .022373,-.370194 .037969,-.385921 .042432,-.390804 .024146,-.386476 .008300,-.371126 .003201,-.368977 -.000995,-.367761 -.005999,-.353632 -.005216,-.342076 -.004288,-.331467 -.000224,-.314058 -.022646,-.301741 -.031291,-.296921 -.008626,-.284155 -.001115,-.269992 "/>
	<path    id="Rafa" d="M.071949,-.387119 Q.081489,-.378023 .094207,-.378925 T.084667,-.388020 .071949,-.387119 "/>
	<path    id="Rafb" d="M-.018346,-.380095 Q-.010213,-.382147 -.004771,-.376212 T-.004626,-.379499 -.024627,-.390966 -.052452,-.391338 -.078887,-.385610 -.104920,-.377256 -.138406,-.364563 -.145759,-.351067 -.123004,-.328573 -.122607,-.338213 -.090130,-.375311 -.037595,-.38181 -.018346,-.380095 "/>
	<path    id="Rafc" d="M-.138544,-.387092 Q-.146404,-.383281 -.144069,-.380148 T-.135276,-.382638 -.120499,-.387692 -.111128,-.39143 -.116944,-.39675 -.127248,-.394333 -.138544,-.387092 "/>
	<path    id="Rafd" d="M-.232953,-.235614 Q-.228926,-.232975 -.220182,-.259325 T-.205952,-.285486 -.202504,-.297003 -.192342,-.318517 -.179021,-.334685 -.183740,-.338746 -.203390,-.314916 -.221573,-.272821 -.231463,-.245254 -.232953,-.235614 "/>
	<path    id="Rafe" d="M-.228724,-.197886 Q-.212624,-.193645 -.206648,-.199363 T-.217379,-.204136 -.239456,-.209729 -.247209,-.190238 -.252909,-.153924 -.267416,-.124361 -.266593,-.105876 -.258118,-.116761 -.250261,-.132036 -.219984,-.128702 -.202098,-.133843 -.217323,-.141098 -.240077,-.138688 -.246712,-.172403 -.228724,-.197886 "/>
	<path    id="Raff" d="M-.138086,-.147747 Q-.130556,-.159068 -.153608,-.158907 T-.161138,-.147586 -.138086,-.147747 "/>
	<path    id="Rafg" d="M-.246615,-.094244 Q-.241396,-.084759 -.229771,-.079617 T-.221028,-.080797 -.237872,-.095424 -.246615,-.094244 "/>
	<path    id="Rafh" d="M-.264849,-.028156 Q-.256891,-.020908 -.253168,-.026403 T-.260077,-.036157 -.277366,-.048689 -.286160,-.044833 -.280551,-.034053 -.264849,-.028156 "/>
	<path    id="Rafi" d="M-.194042,-.034273 Q-.193158,-.029501 -.181317,-.024022 T-.175484,-.02685 -.188209,-.037101 -.194042,-.034273 "/>
	<path    id="Rafj" d="M-.143142,-.12158 Q-.137133,-.120166 -.133598,-.122640 T-.134305,-.128649 -.143849,-.127589 -.143142,-.12158 "/>
	<path    id="Raga" d="M.003195,-.230803 Q.007083,-.226914 .008850,-.231509 T.00779,-.242113 .002135,-.241407 .003195,-.230803 "/>
	<path    id="Ragb" d="M.151123,-.139608 Q.153243,-.136603 .159252,-.138724 T.161550,-.143672 .15342,-.144556 .151123,-.139608 "/>
	<path    id="Ragc" d="M-.158763,.023076 Q-.148839,.015418 -.157185,.008348 T-.166564,.014770 -.179390,.026647 -.196045,.028420 -.208358,.031324 -.214618,.038554 -.203390,.043535 -.183080,.043573 -.170747,.038538 -.158763,.023076 "/>
	<path    id="Ragd" d="M-.191037,.008674 Q-.187502,.01539 -.182907,.016451 T-.179903,.013269 -.188033,.005493 -.191037,.008674 "/>
	<path    id="Rage" d="M-.148739,.092057 Q-.137313,.083541 -.187193,.076633 T-.247328,.056172 -.25867,.051631 -.266287,.062221 -.267961,.072064 -.220580,.080489 -.169109,.090611 -.148739,.092057 "/>
	<path    id="Ragf" d="M-.204764,.126383 Q-.193801,.130537 -.182275,.119772 T-.188535,.111980 -.216009,.110935 -.248501,.109489 -.256325,.117540 -.228536,.122626 -.204764,.126383 "/>
	<path    id="Ragg" d="M-.292596,.100001 Q-.291476,.112381 -.285228,.107151 T-.273641,.100892 -.278497,.089654 -.285017,.070688 -.286955,.049640 -.288918,.025450 -.289813,.003277 -.293165,.018712 -.294457,.047391 -.294678,.061404 -.293066,.080032 -.292596,.100001 "/>
	<path    id="Ragh" d="M-.326946,-.010205 Q-.331514,.012132 -.328745,.016279 T-.322438,.010491 -.320639,-.015993 -.326946,-.010205 "/>
	<path    id="Ragi" d="M-.269508,-.259610 Q-.269154,-.254662 -.264559,-.266150 T-.261025,-.278521 -.265973,-.271982 -.269508,-.259610 "/>
	<path    id="Ragj" d="M-.296372,-.163643 Q-.29213,-.164527 -.288065,-.179373 T-.285767,-.193157 -.294074,-.177428 -.296372,-.163643 "/>
	<path    id="Raha" d="M-.300613,-.13943 Q-.297078,-.14756 -.297255,-.150565 T-.300260,-.150918 -.303618,-.139784 -.300613,-.13943 "/>
	<path    id="Rahb" d="M.011856,-.417612 Q.012209,-.414077 .022989,-.416021 T.022636,-.419555 .011856,-.417612 "/>
	<path    id="Rahc" d="M.085377,-.405594 Q.082903,-.402059 .087498,-.403119 T.089972,-.406654 .085377,-.405594 "/>
	<path    id="Rahd" d="M.145997,-.379260 Q.150769,-.376255 .153243,-.376255 T.153066,-.38032 .14582,-.383324 .145997,-.379260 "/>
	<path    id="Rahe" d="M-.260345,.157151 Q-.261309,.159802 -.267872,.161839 T-.276147,.158626 -.281810,.158144 -.282484,.166285 -.279094,.176299 -.273761,.181653 -.270227,.175387 -.265728,.167996 -.257132,.166229 -.251750,.162935 -.254079,.156750 -.260345,.157151 "/>
	<path    id="Rahf" d="M-.215711,.181388 Q-.194745,.176086 -.198720,.170624 T-.219685,.175926 -.215711,.181388 "/>
	<path    id="Rahg" d="M-.197726,.219949 Q-.181629,.213040 -.184610,.209184 T-.196931,.209987 -.218294,.214165 -.237571,.215771 -.256549,.216896 -.262611,.229428 -.254165,.232481 -.232603,.224447 -.197726,.219949 "/>
	<path    id="Rahh" d="M-.170401,.284377 Q-.171693,.271523 -.179443,.289197 T-.199754,.307889 -.202927,.318825 -.191433,.318920 -.179217,.303163 -.170401,.284377 "/>
	<path    id="Rahi" d="M-.222142,.288269 Q-.222142,.291804 -.218078,.293395 T-.21525,.29145 -.219315,.286325 -.222142,.288269 "/>
	<path    id="Rahj" d="M-.010434,.355603 Q-.013351,.356627 -.011492,.359089 T-.003327,.354857 .002680,.341426 .006261,.327688 .005374,.309120 -.001563,.305266 -.011786,.319266 -.011583,.330723 -.006328,.340503 -.008424,.349844 -.010434,.355603 "/>
	<path    id="Raia" d="M.032372,.333054 Q.04228,.343814 .043754,.335171 T.052328,.314449 .059326,.291431 .05698,.283323 .050325,.301011 .034190,.319081 .032372,.333054 "/>
	<path    id="Raib" d="M.166498,-.007409 Q.173921,-.006349 .179577,-.009883 T.179223,-.016952 .166144,-.014478 .166498,-.007409 "/>
	<path    id="Raic" d="M.207878,.042410 Q.219404,.054621 .235303,.049480 T.225962,.037751 .184947,.031487 .175157,.026558 .173942,.017720 .149949,.045142 .151340,.059441 .182938,.036465 .207878,.042410 "/>
	<path    id="Raid" d="M.232024,.138972 Q.221590,.138811 .204699,.144595 T.201420,.149737 .225366,.152789 .248518,.145881 .267000,.120495 .281209,.118728 .292010,.115647 .293992,.091013 .295155,.072161 .299631,.045703 .293769,.042364 .273297,.057545 .265903,.063697 .282799,.067474 .291046,.074223 .288059,.086094 .279928,.094997 .255556,.098245 .242227,.105001 .247972,.109995 .261847,.110055 .26314,.116051 .259553,.120538 .253342,.130257 .232024,.138972 "/>
	<path    id="Raie" d="M.157485,.019808 Q.159606,.013976 .158015,.013799 T.153243,.015390 .152713,.021398 .157485,.019808 "/>
	<ellipse id="Raif" rx=".008948" ry=".01028" transform="translate(.228532,.104111) rotate(-114.775115,0,0)"/>
	<path    id="Raig" d="M.159075,.361261 Q.154834,.360554 .139524,.368417 T.126300,.379332 .145852,.372176 .159075,.361261 "/>
	<path    id="Raih" d="M.226161,.300765 Q.238681,.284377 .242059,.273451 T.239360,.265894 .228728,.283407 .214337,.305906 .200923,.322777 .205493,.324223 .226161,.300765 "/>
	<path    id="Raii" d="M.273954,.188237 Q.280139,.186469 .282437,.179223 T.282967,.171624 .274484,.180637 .273954,.188237 "/>
	<path    id="Raij" d="M-.001047,.047202 Q.000897,.039426 .000014,.032533 T-.002284,.027761 -.003345,.04243 -.001047,.047202 "/>
	<ellipse id="Raja" rx=".003638" ry=".007711" transform="translate(.253629,.245852) rotate(-152.102742,0,0)"/>
	<path    id="Rajb" d="M.266354,.201139 Q.25681,.205557 .262996,.212096 T.272540,.207678 .266354,.201139 "/>
	<path    id="Rajc" d="M.232244,.198841 Q.237723,.20485 .243909,.205027 T.245853,.201845 .234188,.195660 .232244,.198841 "/>
	<path    id="Rajd" d="M.105223,.311235 Q.105976,.298064 .104266,.29608 T.098249,.30581 .084733,.330513 .074532,.370174 .062123,.389968 .026551,.379203 .008891,.390658 .035918,.405600 .065214,.402625 .089062,.397162 .100962,.389293 .094305,.365514 .097648,.335561 .105223,.311235 "/>
	<path    id="Raje" d="M.050485,-.156658 Q.073538,-.171279 .069860,-.175680 T.034983,-.160256 .002133,-.126060 -.00248,-.124558 -.017537,-.145642 -.029742,-.148074 -.024759,-.127221 -.025925,-.092712 -.031720,-.056643 -.025555,-.043235 -.012293,-.055821 -.002361,-.085938 .002195,-.087410 .008889,-.054622 .017754,-.042843 .028637,-.043928 .033792,-.05972 .029915,-.085946 .027423,-.118886 .050485,-.156658 "/>
	<ellipse id="Rajf" rx=".008920" ry=".024646" transform="translate(-.07121,.08573) rotate(-143.130109,0,0)"/>
	<path    id="Rajg" d="M.039608,.069436 Q.046957,.071948 .051687,.081397 T.065706,.099812 .076702,.102826 .066931,.078640 .043856,.063665 .039608,.069436 "/>
	<path    id="Rajh" d="M.082779,.349929 Q.079301,.364068 .079301,.374512 T.085344,.383270 .089616,.376040 .087051,.353143 .082779,.349929 "/>
	<path    id="Raji" d="M.044722,.402629 Q.054460,.401986 .061967,.400359 T.063755,.396663 .052970,.390900 .035482,.387365 .020776,.391864 .026737,.399737 .044722,.402629 "/>
	<path    id="Rajj" d="M-.046408,.392416 Q-.041901,.397386 -.03953,.395049 T-.044813,.387646 -.056495,.375977 -.061432,.358648 -.066069,.359168 -.069000,.384232 -.059560,.392748 -.046408,.392416 "/>
	<path    id="Rbaa" d="M-.104530,.375174 Q-.108903,.379745 -.101074,.382230 T-.092949,.371288 -.094926,.353606 -.098677,.359977 -.104530,.375174 "/>
	<path    id="Rbab" d="M-.229876,.346913 Q-.228762,.345595 -.219305,.354510 T-.220819,.349029 -.236855,.336522 -.236455,.343321 -.229876,.346913 "/>
	<path    id="Rbac" d="M.226588,.100222 Q.220756,.102697 .225528,.106232 T.232951,.107292 .234011,.101283 .226588,.100222 "/>
	<path    id="Rbad" d="M.259084,-.128314 Q.258224,-.120696 .266835,-.119316 T.271372,-.127416 .263621,-.136414 .259084,-.128314 "/>
	<path    id="Rbae" d="M.266531,.001781 Q.269182,.004786 .272187,.003195 T.272717,-.000693 .267061,-.002107 .266531,.001781 "/>
	<path    id="Rbaf" d="M.126910,-.359996 Q.131328,-.355401 .135040,-.358759 T.135747,-.364768 .127617,-.366005 .126910,-.359996 "/>
	<path    id="Rbag" d="M-.288949,.096688 Q-.290009,.10093 -.287181,.099339 T-.286121,.095097 -.288949,.096688 "/>
	<path    id="Rbah" d="M-.133775,-.358405 Q-.134128,-.360349 -.135366,-.360880 T-.138724,-.359466 -.137133,-.356992 -.133775,-.358405 "/>
	<path    id="Rbai" d="M.285794,.100046 Q.282967,.104111 .286148,.103934 T.288975,.099869 .285794,.100046 "/>
</defs>
<g transform="scale(512,512) translate(0.5,0.5)">
	<rect width="1" height="1" x="-.5" y="-.5"/>
	<use xlink:href="#Raaa" fill="rgb(22%,22%,22%)"/>
	<use xlink:href="#Rabb" fill="rgb(36%,36%,36%)"/>
	<use xlink:href="#Rabc" fill="rgb(22%,22%,22%)"/>
	<use xlink:href="#Raab" fill="rgb(0%,0%,0%)"/>
	<use xlink:href="#Raac" fill="rgb(22%,22%,22%)"/>
	<use xlink:href="#Rabh" fill="rgb(36%,36%,36%)"/>
	<use xlink:href="#Rabi" fill="rgb(22%,22%,22%)"/>
	<use xlink:href="#Raed" fill="rgb(56%,56%,56%)"/>
	<use xlink:href="#Raec" fill="rgb(56%,56%,56%)"/>
	<use xlink:href="#Raee" fill="rgb(56%,56%,56%)"/>
	<use xlink:href="#Raef" fill="rgb(56%,56%,56%)"/>
	<use xlink:href="#Ragh" fill="rgb(56%,56%,56%)"/>
	<use xlink:href="#Ragi" fill="rgb(56%,56%,56%)"/>
	<use xlink:href="#Ragj" fill="rgb(56%,56%,56%)"/>
	<use xlink:href="#Raha" fill="rgb(56%,56%,56%)"/>
	<use xlink:href="#Raca" fill="rgb(36%,36%,36%)"/>
	<use xlink:href="#Rbab" fill="rgb(100%,100%,100%)"/>
	<use xlink:href="#Raae" fill="rgb(22%,22%,22%)"/>
	<use xlink:href="#Raaf" fill="rgb(22%,22%,22%)"/>
	<use xlink:href="#Raag" fill="rgb(22%,22%,22%)"/>
	<use xlink:href="#Raah" fill="rgb(22%,22%,22%)"/>
	<use xlink:href="#Raai" fill="rgb(22%,22%,22%)"/>
	<use xlink:href="#Raaj" fill="rgb(22%,22%,22%)"/>
	<use xlink:href="#Raba" fill="rgb(22%,22%,22%)"/>
	<use xlink:href="#Rabd" fill="rgb(36%,36%,36%)"/>
	<use xlink:href="#Rabe" fill="rgb(36%,36%,36%)"/>
	<use xlink:href="#Rabf" fill="rgb(36%,36%,36%)"/>
	<use xlink:href="#Rabg" fill="rgb(36%,36%,36%)"/>
	<use xlink:href="#Racb" fill="rgb(36%,36%,36%)"/>
	<use xlink:href="#Raeg" fill="rgb(56%,56%,56%)"/>
	<use xlink:href="#Raeh" fill="rgb(56%,56%,56%)"/>
	<use xlink:href="#Rajd" fill="rgb(56%,56%,56%)"/>
	<use xlink:href="#Raad" fill="rgb(0%,0%,0%)"/>
	<use xlink:href="#Raei" fill="rgb(56%,56%,56%)"/>
	<use xlink:href="#Rafb" fill="rgb(56%,56%,56%)"/>
	<use xlink:href="#Ragg" fill="rgb(56%,56%,56%)"/>
	<use xlink:href="#Raid" fill="rgb(56%,56%,56%)"/>
	<use xlink:href="#Raif" fill="rgb(56%,56%,56%)"/>
	<use xlink:href="#Rabj" fill="rgb(22%,22%,22%)"/>
	<use xlink:href="#Rade" fill="rgb(22%,22%,22%)"/>
	<use xlink:href="#Radf" fill="rgb(22%,22%,22%)"/>
	<use xlink:href="#Radg" fill="rgb(22%,22%,22%)"/>
	<use xlink:href="#Radh" fill="rgb(22%,22%,22%)"/>
	<use xlink:href="#Raeb" fill="rgb(56%,56%,56%)"/>
	<use xlink:href="#Raej" fill="rgb(56%,56%,56%)"/>
	<use xlink:href="#Rafa" fill="rgb(56%,56%,56%)"/>
	<use xlink:href="#Rafc" fill="rgb(56%,56%,56%)"/>
	<use xlink:href="#Rafd" fill="rgb(56%,56%,56%)"/>
	<use xlink:href="#Rafe" fill="rgb(56%,56%,56%)"/>
	<use xlink:href="#Raff" fill="rgb(56%,56%,56%)"/>
	<use xlink:href="#Rafg" fill="rgb(56%,56%,56%)"/>
	<use xlink:href="#Rafh" fill="rgb(56%,56%,56%)"/>
	<use xlink:href="#Rafi" fill="rgb(56%,56%,56%)"/>
	<use xlink:href="#Rafj" fill="rgb(56%,56%,56%)"/>
	<use xlink:href="#Raga" fill="rgb(56%,56%,56%)"/>
	<use xlink:href="#Ragb" fill="rgb(56%,56%,56%)"/>
	<use xlink:href="#Ragc" fill="rgb(56%,56%,56%)"/>
	<use xlink:href="#Ragd" fill="rgb(56%,56%,56%)"/>
	<use xlink:href="#Rage" fill="rgb(56%,56%,56%)"/>
	<use xlink:href="#Ragf" fill="rgb(56%,56%,56%)"/>
	<use xlink:href="#Rahb" fill="rgb(56%,56%,56%)"/>
	<use xlink:href="#Rahc" fill="rgb(56%,56%,56%)"/>
	<use xlink:href="#Rahd" fill="rgb(56%,56%,56%)"/>
	<use xlink:href="#Rahe" fill="rgb(56%,56%,56%)"/>
	<use xlink:href="#Rahf" fill="rgb(56%,56%,56%)"/>
	<use xlink:href="#Rahg" fill="rgb(56%,56%,56%)"/>
	<use xlink:href="#Rahh" fill="rgb(56%,56%,56%)"/>
	<use xlink:href="#Rahi" fill="rgb(56%,56%,56%)"/>
	<use xlink:href="#Rahj" fill="rgb(56%,56%,56%)"/>
	<use xlink:href="#Raia" fill="rgb(56%,56%,56%)"/>
	<use xlink:href="#Raib" fill="rgb(56%,56%,56%)"/>
	<use xlink:href="#Raic" fill="rgb(56%,56%,56%)"/>
	<use xlink:href="#Raie" fill="rgb(56%,56%,56%)"/>
	<use xlink:href="#Raig" fill="rgb(56%,56%,56%)"/>
	<use xlink:href="#Raih" fill="rgb(56%,56%,56%)"/>
	<use xlink:href="#Raii" fill="rgb(56%,56%,56%)"/>
	<use xlink:href="#Raja" fill="rgb(56%,56%,56%)"/>
	<use xlink:href="#Rajb" fill="rgb(56%,56%,56%)"/>
	<use xlink:href="#Rajc" fill="rgb(56%,56%,56%)"/>
	<use xlink:href="#Racc" fill="rgb(36%,36%,36%)"/>
	<use xlink:href="#Racd" fill="rgb(36%,36%,36%)"/>
	<use xlink:href="#Race" fill="rgb(36%,36%,36%)"/>
	<use xlink:href="#Racf" fill="rgb(36%,36%,36%)"/>
	<use xlink:href="#Racg" fill="rgb(36%,36%,36%)"/>
	<use xlink:href="#Rach" fill="rgb(36%,36%,36%)"/>
	<use xlink:href="#Raci" fill="rgb(36%,36%,36%)"/>
	<use xlink:href="#Racj" fill="rgb(36%,36%,36%)"/>
	<use xlink:href="#Rada" fill="rgb(36%,36%,36%)"/>
	<use xlink:href="#Radb" fill="rgb(36%,36%,36%)"/>
	<use xlink:href="#Radc" fill="rgb(36%,36%,36%)"/>
	<use xlink:href="#Radd" fill="rgb(36%,36%,36%)"/>
	<use xlink:href="#Radi" fill="rgb(56%,56%,56%)"/>
	<use xlink:href="#Radj" fill="rgb(56%,56%,56%)"/>
	<use xlink:href="#Raea" fill="rgb(56%,56%,56%)"/>
	<use xlink:href="#Rajh" fill="rgb(100%,100%,100%)"/>
	<use xlink:href="#Raji" fill="rgb(100%,100%,100%)"/>
	<use xlink:href="#Rajj" fill="rgb(100%,100%,100%)"/>
	<use xlink:href="#Rbaa" fill="rgb(100%,100%,100%)"/>
	<use xlink:href="#Rbac" fill="rgb(100%,100%,100%)"/>
	<use xlink:href="#Rbad" fill="rgb(100%,100%,100%)"/>
	<use xlink:href="#Rbae" fill="rgb(100%,100%,100%)"/>
	<use xlink:href="#Rbaf" fill="rgb(100%,100%,100%)"/>
	<use xlink:href="#Rbag" fill="rgb(100%,100%,100%)"/>
	<use xlink:href="#Rbah" fill="rgb(100%,100%,100%)"/>
	<use xlink:href="#Rbai" fill="rgb(100%,100%,100%)"/>
	<use xlink:href="#Raij" fill="rgb(56%,56%,56%)"/>
	<use xlink:href="#Raje" fill="rgb(100%,100%,100%)"/>
	<use xlink:href="#Rajf" fill="rgb(100%,100%,100%)"/>
	<use xlink:href="#Rajg" fill="rgb(100%,100%,100%)"/>
</g>
</svg>
